<svg width="20" height="14" viewBox="0 0 20 14" fill="none" xmlns="http://www.w3.org/2000/svg">
<path d="M15.0781 7.08517C15.9245 7.71017 16.9564 8.61837 18.1738 9.80978C19.3913 11.0012 20 11.7401 20 12.0266C20 12.3781 19.8991 12.6744 19.6973 12.9152C19.4954 13.1561 19.1797 13.2766 18.75 13.2766H16.6797C16.2891 13.2766 15.9375 13.1138 15.625 12.7883C14.8438 11.955 14.043 11.1542 13.2227 10.3859C12.4023 9.61772 11.7448 9.07084 11.25 8.74532V12.6516C11.25 12.8208 11.1882 12.9673 11.0645 13.091C10.9408 13.2147 10.7943 13.2766 10.625 13.2766H8.125C7.82552 13.2766 7.39258 13.0487 6.82617 12.593C6.25977 12.1372 5.65104 11.5318 5 10.7766C4.0625 9.69584 2.99479 8.12032 1.79688 6.05001C0.598958 3.9797 0 2.63855 0 2.02657C0 1.57084 0.100911 1.24858 0.302734 1.05978C0.504557 0.870974 0.820312 0.776573 1.25 0.776573H3.32031C3.5026 0.776573 3.69466 0.854698 3.89648 1.01095C4.09831 1.1672 4.2513 1.34949 4.35547 1.55782C4.38151 1.62293 4.51172 1.89962 4.74609 2.3879C4.98047 2.87618 5.13021 3.18543 5.19531 3.31564L5.60547 4.13595L6.08398 5.04415L6.52344 5.77657L7.03125 6.53829L7.5 7.1047V1.40157C7.5 1.2323 7.56185 1.08582 7.68555 0.96212C7.80924 0.838422 7.95573 0.776573 8.125 0.776573H10.625C10.7943 0.776573 10.9408 0.838422 11.0645 0.96212C11.1882 1.08582 11.25 1.2323 11.25 1.40157V5.8547C12.5781 4.95626 14.0365 3.42631 15.625 1.26485C15.7292 1.13465 15.8822 1.02071 16.084 0.923058C16.2858 0.825401 16.4844 0.776573 16.6797 0.776573H18.75C19.2057 0.776573 19.528 0.88074 19.7168 1.08907C19.9056 1.29741 20 1.60991 20 2.02657C20 2.59949 19.4694 3.39702 18.4082 4.41915C17.347 5.44129 16.237 6.32996 15.0781 7.08517Z" fill="#FFFDFD"/>
</svg>
