<svg width="20" height="15" viewBox="0 0 20 15" fill="none" xmlns="http://www.w3.org/2000/svg">
<path d="M19.5825 2.19603C19.4665 1.78068 19.2454 1.40226 18.9405 1.09733C18.6356 0.792411 18.2572 0.571306 17.8418 0.455387C16.2829 0.0377317 10.0089 0.0377316 10.0089 0.0377316C10.0089 0.0377316 3.75074 0.0293953 2.17599 0.455387C1.76064 0.571306 1.38221 0.792411 1.07729 1.09733C0.772366 1.40226 0.55126 1.78068 0.435342 2.19603C0.139832 3.79205 -0.00585506 5.4122 0.000180061 7.03533C-0.00471415 8.65234 0.140969 10.2663 0.435342 11.8563C0.55126 12.2716 0.772366 12.6501 1.07729 12.955C1.38221 13.2599 1.76064 13.481 2.17599 13.5969C3.73323 14.0154 10.0089 14.0154 10.0089 14.0154C10.0089 14.0154 16.2662 14.0154 17.8418 13.5969C18.2572 13.481 18.6356 13.2599 18.9405 12.955C19.2454 12.6501 19.4665 12.2716 19.5825 11.8563C19.8707 10.2657 20.0102 8.65177 19.9993 7.03533C20.0114 5.41277 19.8718 3.79263 19.5825 2.19603ZM8.00649 10.0289V4.03255L13.2284 7.03533L8.00649 10.0289Z" fill="white"/>
</svg>
